# xmcd CD database file
#
# Track frame offsets:
#	150
#	24087
#	45597
#	75249
#	94595
#	122915
#	150879
#	176134
#	200585
#	227946
#	239698
#
# Disc length: 3531 seconds
#
# Revision: 0
# Processed by: cddbd v1.5.1PL0 Copyright (c) Steve Scherf et al.
# Submitted via: CDex 1.51
#
DISCID=7e0dc90b
DTITLE=The Charlie Shoemake Trios - Uncrowned Kings and Long Lost Things
DYEAR=1999
DGENRE=Jazz
TTITLE0=Signal
TTITLE1=Avila and Tequila
TTITLE2='Way Down Yonder In New Orleans
TTITLE3=Minor's Holiday
TTITLE4=Just a Gigolo
TTITLE5=Royal Flush
TTITLE6=Struttin' With Some Barbeque
TTITLE7=The Heather On The Hill
TTITLE8=Blue 'n' Boogie
TTITLE9=Constellation
TTITLE10=Waltzin'
EXTD=YEAR: 1999
EXTT0=
EXTT1=
EXTT2=
EXTT3=
EXTT4=
EXTT5=
EXTT6=
EXTT7=
EXTT8=
EXTT9=
EXTT10=
PLAYORDER=
